<?xml version="1.0" standalone="no"?>
<!DOCTYPE svg PUBLIC "-//W3C//DTD SVG 20010904//EN"
 "http://www.w3.org/TR/2001/REC-SVG-20010904/DTD/svg10.dtd">
<svg version="1.0" xmlns="http://www.w3.org/2000/svg"
 width="700.000000pt" height="700.000000pt" viewBox="0 0 700.000000 700.000000"
 preserveAspectRatio="xMidYMid meet">
<metadata>
Created by potrace 1.14, written by Peter Selinger 2001-2017
</metadata>
<g transform="translate(0.000000,700.000000) scale(0.100000,-0.100000)"
fill="#000000" stroke="none">
<path d="M5354 6833 c-87 -92 -209 -219 -270 -282 -61 -64 -128 -135 -150
-157 -21 -23 -118 -124 -215 -225 -246 -256 -249 -259 -269 -302 -39 -86 10
-193 98 -216 20 -5 136 -10 257 -10 121 0 228 0 238 0 16 -1 17 -137 17 -2703
0 -1875 3 -2715 11 -2741 13 -47 67 -109 117 -133 33 -16 73 -18 412 -19 206
0 391 3 410 8 53 14 106 57 135 108 l25 46 0 2713 c0 1493 2 2716 5 2718 2 3
114 5 247 4 222 0 247 1 285 20 97 45 118 172 42 258 -27 31 -290 306 -419
440 -25 25 -128 133 -230 240 -102 106 -230 240 -284 297 l-99 103 -102 0
-101 0 -160 -167z"/>
<path d="M3774 4799 c-45 -10 -103 -59 -131 -111 -17 -32 -18 -133 -18 -2258
0 -2063 1 -2228 17 -2260 20 -42 60 -81 108 -106 32 -16 70 -18 425 -18 l390
0 49 24 c54 28 87 66 105 122 10 29 12 558 13 2243 l0 2205 -22 45 c-27 56
-79 100 -136 114 -53 13 -740 13 -800 0z"/>
<path d="M2355 3722 c-77 -13 -149 -86 -164 -166 -5 -31 -8 -701 -7 -1701 l2
-1650 21 -40 c25 -47 54 -76 103 -101 32 -16 69 -18 426 -18 l391 0 49 25 c59
30 101 87 112 149 4 25 7 785 6 1690 -1 1527 -2 1648 -18 1685 -22 50 -50 81
-101 108 -39 20 -54 21 -420 22 -209 0 -389 -1 -400 -3z"/>
<path d="M925 2642 c-2 -2 -9 -5 -17 -6 -33 -5 -91 -42 -113 -71 -53 -68 -51
-28 -50 -1230 1 -1035 3 -1123 19 -1160 22 -50 41 -71 95 -103 l44 -26 376 -1
c207 0 391 3 410 7 51 10 113 58 141 108 l25 45 0 1125 c1 910 -1 1133 -12
1164 -20 59 -57 101 -110 127 -46 22 -52 23 -426 23 -208 1 -380 0 -382 -2z"/>
</g>
</svg>
